<svg xmlns="http://www.w3.org/2000/svg" viewBox="0 0 1366 433.96"><defs><style>.cls-1{fill:#2e3192;}.cls-2{fill:#1b1464;}</style></defs><g id="Layer_2" data-name="Layer 2"><g id="Layer_4" data-name="Layer 4"><path class="cls-1" d="M1366,91.08V433H0V154.33c30.19-51.41,72.2-96.05,108.52-89.89,61,10.37,62.91,157,118.48,161.52,44,3.61,56.69-87.3,123-101,72.59-15,106.34,83.85,186,85C657.64,211.72,729.61-16.55,789,1c37.89,11.18,33.71,111.5,48.27,172.57,5.73,24.06,14.38,42,29.65,46.05,28,7.38,53.37-38.79,89.22-77.24,23.31-25,51.05-46.72,86.86-48.38,69.86-3.24,91.9,73.53,166,69,78.81-4.82,112.81-95.26,147-81A20.38,20.38,0,0,1,1366,91.08Z"/><path class="cls-2" d="M1366,253.66V434H0V195.48C57.92,239.35,56.84,384.9,118,396c66,11.94,109.07-149.9,203-150,77.52-.08,88.54,110.24,173.5,135,114,33.23,246.67-121.08,342.77-207.43C881,134.22,917.2,109,940.61,122c7.2,4,12.2,11,15.53,20.38C980.22,210,916.58,398.16,962.34,419s110.86-166.31,265.22-192C1284.64,217.46,1326.68,234.56,1366,253.66Z"/></g></g></svg>